<svg xmlns="http://www.w3.org/2000/svg" fill="currentColor" viewBox="0 0 24 24">
  <path d="M20.45 20.45h-3.6v-5.4c0-1.29-.46-2.18-1.61-2.18-0.88 0-1.41.59-1.64 1.17-.08.19-.1.46-.1.73v5.68h-3.6s.05-9.22 0-10.18h3.6v1.44c.48-.74 1.32-1.8 3.22-1.8 2.35 0 4.11 1.54 4.11 4.85v5.69zM5.34 7.56c-1.16 0-1.92-.77-1.92-1.73 0-.99.78-1.73 1.97-1.73s1.91.74 1.93 1.73c0 .96-.75 1.73-1.98 1.73h-.01zm-1.8 12.89h3.6v-10.18h-3.6v10.18zM22.22 0H1.78C.8 0 0 .78 0 1.74v20.52C0 23.22.8 24 1.78 24h20.45c.98 0 1.78-.78 1.78-1.74V1.74C24 .78 23.2 0 22.22 0z"/>
</svg>
